<?xml version="1.0" encoding="UTF-8" standalone="no"?>
<!DOCTYPE svg PUBLIC "-//W3C//DTD SVG 1.1//EN"
 "http://www.w3.org/Graphics/SVG/1.1/DTD/svg11.dtd">
<!-- Generated by graphviz version 2.40.1 (20161225.0304)
 -->
<!-- Title: go_sub Pages: 1 -->
<svg width="1083pt" height="727pt"
 viewBox="0.00 0.00 1083.00 727.00" xmlns="http://www.w3.org/2000/svg" xmlns:xlink="http://www.w3.org/1999/xlink">
<g id="graph0" class="graph" transform="scale(1 1) rotate(0) translate(4 723)">
<title>go_sub</title>
<polygon fill="#ffffff" stroke="transparent" points="-4,4 -4,-723 1079,-723 1079,4 -4,4"/>
<!-- GO_0048465 -->
<g id="node1" class="node">
<title>GO_0048465</title>
<polygon fill="none" stroke="#000000" points="378,-417 198,-417 198,-302 378,-302 378,-417"/>
<text text-anchor="start" x="286.333" y="-401.9" font-family="arial" font-size="12.00" fill="#000000"> </text>
<polygon fill="#b2b2b2" stroke="transparent" points="208,-369.5 208,-394.5 233,-394.5 233,-369.5 208,-369.5"/>
<text text-anchor="start" x="217.1631" y="-379.2994" font-family="arial" font-size="12.00" fill="#000000">0</text>
<polygon fill="#9dff00" stroke="transparent" points="235,-369.5 235,-394.5 260,-394.5 260,-369.5 235,-369.5"/>
<text text-anchor="start" x="244.1631" y="-379.2994" font-family="arial" font-size="12.00" fill="#000000">8</text>
<polygon fill="#a7ff00" stroke="transparent" points="262,-369.5 262,-394.5 287,-394.5 287,-369.5 262,-369.5"/>
<text text-anchor="start" x="271.1631" y="-379.2994" font-family="arial" font-size="12.00" fill="#000000">9</text>
<polygon fill="#b2b2b2" stroke="transparent" points="289,-369.5 289,-394.5 314,-394.5 314,-369.5 289,-369.5"/>
<text text-anchor="start" x="298.1631" y="-379.2994" font-family="arial" font-size="12.00" fill="#000000">0</text>
<polygon fill="#c5ff00" stroke="transparent" points="316,-369.5 316,-394.5 341,-394.5 341,-369.5 316,-369.5"/>
<text text-anchor="start" x="321.8262" y="-379.2994" font-family="arial" font-size="12.00" fill="#000000">12</text>
<polygon fill="#89ff00" stroke="transparent" points="343,-369.5 343,-394.5 368,-394.5 368,-369.5 343,-369.5"/>
<text text-anchor="start" x="352.1631" y="-379.2994" font-family="arial" font-size="12.00" fill="#000000">6</text>
<text text-anchor="start" x="234.3018" y="-355.9" font-family="arial" font-size="12.00" fill="#000000">corolla development</text>
<text text-anchor="start" x="253.6406" y="-342.1012" font-family="arial" font-size="12.00" fill="#c0c0c0">GO:0048465</text>
</g>
<!-- GO_0048441 -->
<g id="node10" class="node">
<title>GO_0048441</title>
<polygon fill="none" stroke="#000000" points="378,-266 198,-266 198,-151 378,-151 378,-266"/>
<text text-anchor="start" x="286.333" y="-250.9" font-family="arial" font-size="12.00" fill="#000000"> </text>
<polygon fill="#b2b2b2" stroke="transparent" points="208,-218.5 208,-243.5 233,-243.5 233,-218.5 208,-218.5"/>
<text text-anchor="start" x="217.1631" y="-228.2994" font-family="arial" font-size="12.00" fill="#000000">0</text>
<polygon fill="#9dff00" stroke="transparent" points="235,-218.5 235,-243.5 260,-243.5 260,-218.5 235,-218.5"/>
<text text-anchor="start" x="244.1631" y="-228.2994" font-family="arial" font-size="12.00" fill="#000000">8</text>
<polygon fill="#a7ff00" stroke="transparent" points="262,-218.5 262,-243.5 287,-243.5 287,-218.5 262,-218.5"/>
<text text-anchor="start" x="271.1631" y="-228.2994" font-family="arial" font-size="12.00" fill="#000000">9</text>
<polygon fill="#b2b2b2" stroke="transparent" points="289,-218.5 289,-243.5 314,-243.5 314,-218.5 289,-218.5"/>
<text text-anchor="start" x="298.1631" y="-228.2994" font-family="arial" font-size="12.00" fill="#000000">0</text>
<polygon fill="#c5ff00" stroke="transparent" points="316,-218.5 316,-243.5 341,-243.5 341,-218.5 316,-218.5"/>
<text text-anchor="start" x="321.8262" y="-228.2994" font-family="arial" font-size="12.00" fill="#000000">12</text>
<polygon fill="#89ff00" stroke="transparent" points="343,-218.5 343,-243.5 368,-243.5 368,-218.5 343,-218.5"/>
<text text-anchor="start" x="352.1631" y="-228.2994" font-family="arial" font-size="12.00" fill="#000000">6</text>
<text text-anchor="start" x="238.9658" y="-204.9" font-family="arial" font-size="12.00" fill="#000000">petal development</text>
<text text-anchor="start" x="253.6406" y="-191.1012" font-family="arial" font-size="12.00" fill="#c0c0c0">GO:0048441</text>
</g>
<!-- GO_0048465&#45;&#45;GO_0048441 -->
<g id="edge10" class="edge">
<title>GO_0048465&#45;&#45;GO_0048441</title>
<path fill="none" stroke="#000000" d="M288,-301.9826C288,-290.231 288,-277.8622 288,-266.1075"/>
</g>
<!-- GO_0048442 -->
<g id="node2" class="node">
<title>GO_0048442</title>
<polygon fill="none" stroke="#000000" points="576,-266 396,-266 396,-151 576,-151 576,-266"/>
<text text-anchor="start" x="484.333" y="-250.9" font-family="arial" font-size="12.00" fill="#000000"> </text>
<polygon fill="#89ff00" stroke="transparent" points="406,-218.5 406,-243.5 431,-243.5 431,-218.5 406,-218.5"/>
<text text-anchor="start" x="415.1631" y="-228.2994" font-family="arial" font-size="12.00" fill="#000000">6</text>
<polygon fill="#89ff00" stroke="transparent" points="433,-218.5 433,-243.5 458,-243.5 458,-218.5 433,-218.5"/>
<text text-anchor="start" x="442.1631" y="-228.2994" font-family="arial" font-size="12.00" fill="#000000">6</text>
<polygon fill="#9dff00" stroke="transparent" points="460,-218.5 460,-243.5 485,-243.5 485,-218.5 460,-218.5"/>
<text text-anchor="start" x="469.1631" y="-228.2994" font-family="arial" font-size="12.00" fill="#000000">8</text>
<polygon fill="#b2b2b2" stroke="transparent" points="487,-218.5 487,-243.5 512,-243.5 512,-218.5 487,-218.5"/>
<text text-anchor="start" x="496.1631" y="-228.2994" font-family="arial" font-size="12.00" fill="#000000">0</text>
<polygon fill="#b2b2b2" stroke="transparent" points="514,-218.5 514,-243.5 539,-243.5 539,-218.5 514,-218.5"/>
<text text-anchor="start" x="523.1631" y="-228.2994" font-family="arial" font-size="12.00" fill="#000000">0</text>
<polygon fill="#89ff00" stroke="transparent" points="541,-218.5 541,-243.5 566,-243.5 566,-218.5 541,-218.5"/>
<text text-anchor="start" x="550.1631" y="-228.2994" font-family="arial" font-size="12.00" fill="#000000">6</text>
<text text-anchor="start" x="435.6328" y="-204.9" font-family="arial" font-size="12.00" fill="#000000">sepal development</text>
<text text-anchor="start" x="451.6406" y="-191.1012" font-family="arial" font-size="12.00" fill="#c0c0c0">GO:0048442</text>
</g>
<!-- GO_0010162 -->
<g id="node3" class="node">
<title>GO_0010162</title>
<polygon fill="none" stroke="#000000" points="774,-417 594,-417 594,-302 774,-302 774,-417"/>
<text text-anchor="start" x="682.333" y="-401.9" font-family="arial" font-size="12.00" fill="#000000"> </text>
<polygon fill="#93ff00" stroke="transparent" points="604,-369.5 604,-394.5 629,-394.5 629,-369.5 604,-369.5"/>
<text text-anchor="start" x="613.1631" y="-379.2994" font-family="arial" font-size="12.00" fill="#000000">7</text>
<polygon fill="#bbff00" stroke="transparent" points="631,-369.5 631,-394.5 656,-394.5 656,-369.5 631,-369.5"/>
<text text-anchor="start" x="637.2715" y="-379.2994" font-family="arial" font-size="12.00" fill="#000000">11</text>
<polygon fill="#b2b2b2" stroke="transparent" points="658,-369.5 658,-394.5 683,-394.5 683,-369.5 658,-369.5"/>
<text text-anchor="start" x="667.1631" y="-379.2994" font-family="arial" font-size="12.00" fill="#000000">0</text>
<polygon fill="#bbff00" stroke="transparent" points="685,-369.5 685,-394.5 710,-394.5 710,-369.5 685,-369.5"/>
<text text-anchor="start" x="691.2715" y="-379.2994" font-family="arial" font-size="12.00" fill="#000000">11</text>
<polygon fill="#c5ff00" stroke="transparent" points="712,-369.5 712,-394.5 737,-394.5 737,-369.5 712,-369.5"/>
<text text-anchor="start" x="717.8262" y="-379.2994" font-family="arial" font-size="12.00" fill="#000000">12</text>
<polygon fill="#7fff00" stroke="transparent" points="739,-369.5 739,-394.5 764,-394.5 764,-369.5 739,-369.5"/>
<text text-anchor="start" x="748.1631" y="-379.2994" font-family="arial" font-size="12.00" fill="#000000">5</text>
<text text-anchor="start" x="620.3027" y="-355.9" font-family="arial" font-size="12.00" fill="#000000">seed dormancy process</text>
<text text-anchor="start" x="649.6406" y="-342.1012" font-family="arial" font-size="12.00" fill="#c0c0c0">GO:0010162</text>
</g>
<!-- GO_0048449 -->
<g id="node4" class="node">
<title>GO_0048449</title>
<polygon fill="none" stroke="#000000" points="180,-115 0,-115 0,0 180,0 180,-115"/>
<text text-anchor="start" x="88.333" y="-99.9" font-family="arial" font-size="12.00" fill="#000000"> </text>
<polygon fill="#9dff00" stroke="transparent" points="10,-67.5 10,-92.5 35,-92.5 35,-67.5 10,-67.5"/>
<text text-anchor="start" x="19.1631" y="-77.2994" font-family="arial" font-size="12.00" fill="#000000">8</text>
<polygon fill="#a7ff00" stroke="transparent" points="37,-67.5 37,-92.5 62,-92.5 62,-67.5 37,-67.5"/>
<text text-anchor="start" x="46.1631" y="-77.2994" font-family="arial" font-size="12.00" fill="#000000">9</text>
<polygon fill="#b1ff00" stroke="transparent" points="64,-67.5 64,-92.5 89,-92.5 89,-67.5 64,-67.5"/>
<text text-anchor="start" x="69.8262" y="-77.2994" font-family="arial" font-size="12.00" fill="#000000">10</text>
<polygon fill="#b1ff00" stroke="transparent" points="91,-67.5 91,-92.5 116,-92.5 116,-67.5 91,-67.5"/>
<text text-anchor="start" x="96.8262" y="-77.2994" font-family="arial" font-size="12.00" fill="#000000">10</text>
<polygon fill="#eeff00" stroke="transparent" points="118,-67.5 118,-92.5 143,-92.5 143,-67.5 118,-67.5"/>
<text text-anchor="start" x="123.8262" y="-77.2994" font-family="arial" font-size="12.00" fill="#000000">16</text>
<polygon fill="#89ff00" stroke="transparent" points="145,-67.5 145,-92.5 170,-92.5 170,-67.5 145,-67.5"/>
<text text-anchor="start" x="154.1631" y="-77.2994" font-family="arial" font-size="12.00" fill="#000000">6</text>
<text text-anchor="start" x="33.3047" y="-53.9" font-family="arial" font-size="12.00" fill="#000000">floral organ formation</text>
<text text-anchor="start" x="55.6406" y="-40.1012" font-family="arial" font-size="12.00" fill="#c0c0c0">GO:0048449</text>
</g>
<!-- GO_0048444 -->
<g id="node5" class="node">
<title>GO_0048444</title>
<polygon fill="none" stroke="#000000" points="180,-266 0,-266 0,-151 180,-151 180,-266"/>
<text text-anchor="start" x="88.333" y="-250.9" font-family="arial" font-size="12.00" fill="#000000"> </text>
<polygon fill="#9dff00" stroke="transparent" points="10,-218.5 10,-243.5 35,-243.5 35,-218.5 10,-218.5"/>
<text text-anchor="start" x="19.1631" y="-228.2994" font-family="arial" font-size="12.00" fill="#000000">8</text>
<polygon fill="#b1ff00" stroke="transparent" points="37,-218.5 37,-243.5 62,-243.5 62,-218.5 37,-218.5"/>
<text text-anchor="start" x="42.8262" y="-228.2994" font-family="arial" font-size="12.00" fill="#000000">10</text>
<polygon fill="#c5ff00" stroke="transparent" points="64,-218.5 64,-243.5 89,-243.5 89,-218.5 64,-218.5"/>
<text text-anchor="start" x="69.8262" y="-228.2994" font-family="arial" font-size="12.00" fill="#000000">12</text>
<polygon fill="#c5ff00" stroke="transparent" points="91,-218.5 91,-243.5 116,-243.5 116,-218.5 91,-218.5"/>
<text text-anchor="start" x="96.8262" y="-228.2994" font-family="arial" font-size="12.00" fill="#000000">12</text>
<polygon fill="#fffb00" stroke="transparent" points="118,-218.5 118,-243.5 143,-243.5 143,-218.5 118,-218.5"/>
<text text-anchor="start" x="123.8262" y="-228.2994" font-family="arial" font-size="12.00" fill="#000000">18</text>
<polygon fill="#89ff00" stroke="transparent" points="145,-218.5 145,-243.5 170,-243.5 170,-218.5 145,-218.5"/>
<text text-anchor="start" x="154.1631" y="-228.2994" font-family="arial" font-size="12.00" fill="#000000">6</text>
<text text-anchor="start" x="17.291" y="-204.9" font-family="arial" font-size="12.00" fill="#000000">floral organ morphogenesis</text>
<text text-anchor="start" x="55.6406" y="-191.1012" font-family="arial" font-size="12.00" fill="#c0c0c0">GO:0048444</text>
</g>
<!-- GO_0048444&#45;&#45;GO_0048449 -->
<g id="edge5" class="edge">
<title>GO_0048444&#45;&#45;GO_0048449</title>
<path fill="none" stroke="#000000" d="M90,-150.9826C90,-139.231 90,-126.8622 90,-115.1075"/>
</g>
<!-- GO_0048446 -->
<g id="node11" class="node">
<title>GO_0048446</title>
<polygon fill="none" stroke="#000000" points="378,-115 198,-115 198,0 378,0 378,-115"/>
<text text-anchor="start" x="286.333" y="-99.9" font-family="arial" font-size="12.00" fill="#000000"> </text>
<polygon fill="#89ff00" stroke="transparent" points="208,-67.5 208,-92.5 233,-92.5 233,-67.5 208,-67.5"/>
<text text-anchor="start" x="217.1631" y="-77.2994" font-family="arial" font-size="12.00" fill="#000000">6</text>
<polygon fill="#93ff00" stroke="transparent" points="235,-67.5 235,-92.5 260,-92.5 260,-67.5 235,-67.5"/>
<text text-anchor="start" x="244.1631" y="-77.2994" font-family="arial" font-size="12.00" fill="#000000">7</text>
<polygon fill="#b2b2b2" stroke="transparent" points="262,-67.5 262,-92.5 287,-92.5 287,-67.5 262,-67.5"/>
<text text-anchor="start" x="271.1631" y="-77.2994" font-family="arial" font-size="12.00" fill="#000000">0</text>
<polygon fill="#89ff00" stroke="transparent" points="289,-67.5 289,-92.5 314,-92.5 314,-67.5 289,-67.5"/>
<text text-anchor="start" x="298.1631" y="-77.2994" font-family="arial" font-size="12.00" fill="#000000">6</text>
<polygon fill="#b2b2b2" stroke="transparent" points="316,-67.5 316,-92.5 341,-92.5 341,-67.5 316,-67.5"/>
<text text-anchor="start" x="325.1631" y="-77.2994" font-family="arial" font-size="12.00" fill="#000000">0</text>
<polygon fill="#89ff00" stroke="transparent" points="343,-67.5 343,-92.5 368,-92.5 368,-67.5 343,-67.5"/>
<text text-anchor="start" x="352.1631" y="-77.2994" font-family="arial" font-size="12.00" fill="#000000">6</text>
<text text-anchor="start" x="232.2979" y="-53.9" font-family="arial" font-size="12.00" fill="#000000">petal morphogenesis</text>
<text text-anchor="start" x="253.6406" y="-40.1012" font-family="arial" font-size="12.00" fill="#c0c0c0">GO:0048446</text>
</g>
<!-- GO_0048444&#45;&#45;GO_0048446 -->
<g id="edge12" class="edge">
<title>GO_0048444&#45;&#45;GO_0048446</title>
<path fill="none" stroke="#000000" d="M165.4201,-150.9826C180.8295,-139.231 197.0482,-126.8622 212.4617,-115.1075"/>
</g>
<!-- GO_0048464 -->
<g id="node6" class="node">
<title>GO_0048464</title>
<polygon fill="none" stroke="#000000" points="576,-417 396,-417 396,-302 576,-302 576,-417"/>
<text text-anchor="start" x="484.333" y="-401.9" font-family="arial" font-size="12.00" fill="#000000"> </text>
<polygon fill="#89ff00" stroke="transparent" points="406,-369.5 406,-394.5 431,-394.5 431,-369.5 406,-369.5"/>
<text text-anchor="start" x="415.1631" y="-379.2994" font-family="arial" font-size="12.00" fill="#000000">6</text>
<polygon fill="#89ff00" stroke="transparent" points="433,-369.5 433,-394.5 458,-394.5 458,-369.5 433,-369.5"/>
<text text-anchor="start" x="442.1631" y="-379.2994" font-family="arial" font-size="12.00" fill="#000000">6</text>
<polygon fill="#9dff00" stroke="transparent" points="460,-369.5 460,-394.5 485,-394.5 485,-369.5 460,-369.5"/>
<text text-anchor="start" x="469.1631" y="-379.2994" font-family="arial" font-size="12.00" fill="#000000">8</text>
<polygon fill="#b2b2b2" stroke="transparent" points="487,-369.5 487,-394.5 512,-394.5 512,-369.5 487,-369.5"/>
<text text-anchor="start" x="496.1631" y="-379.2994" font-family="arial" font-size="12.00" fill="#000000">0</text>
<polygon fill="#b2b2b2" stroke="transparent" points="514,-369.5 514,-394.5 539,-394.5 539,-369.5 514,-369.5"/>
<text text-anchor="start" x="523.1631" y="-379.2994" font-family="arial" font-size="12.00" fill="#000000">0</text>
<polygon fill="#89ff00" stroke="transparent" points="541,-369.5 541,-394.5 566,-394.5 566,-369.5 541,-369.5"/>
<text text-anchor="start" x="550.1631" y="-379.2994" font-family="arial" font-size="12.00" fill="#000000">6</text>
<text text-anchor="start" x="418.6348" y="-355.9" font-family="arial" font-size="12.00" fill="#000000">flower calyx development</text>
<text text-anchor="start" x="451.6406" y="-342.1012" font-family="arial" font-size="12.00" fill="#c0c0c0">GO:0048464</text>
</g>
<!-- GO_0048464&#45;&#45;GO_0048442 -->
<g id="edge3" class="edge">
<title>GO_0048464&#45;&#45;GO_0048442</title>
<path fill="none" stroke="#000000" d="M486,-301.9826C486,-290.231 486,-277.8622 486,-266.1075"/>
</g>
<!-- GO_0010431 -->
<g id="node7" class="node">
<title>GO_0010431</title>
<polygon fill="none" stroke="#000000" points="675,-568 495,-568 495,-453 675,-453 675,-568"/>
<text text-anchor="start" x="583.333" y="-552.9" font-family="arial" font-size="12.00" fill="#000000"> </text>
<polygon fill="#93ff00" stroke="transparent" points="505,-520.5 505,-545.5 530,-545.5 530,-520.5 505,-520.5"/>
<text text-anchor="start" x="514.1631" y="-530.2994" font-family="arial" font-size="12.00" fill="#000000">7</text>
<polygon fill="#c5ff00" stroke="transparent" points="532,-520.5 532,-545.5 557,-545.5 557,-520.5 532,-520.5"/>
<text text-anchor="start" x="537.8262" y="-530.2994" font-family="arial" font-size="12.00" fill="#000000">12</text>
<polygon fill="#9dff00" stroke="transparent" points="559,-520.5 559,-545.5 584,-545.5 584,-520.5 559,-520.5"/>
<text text-anchor="start" x="568.1631" y="-530.2994" font-family="arial" font-size="12.00" fill="#000000">8</text>
<polygon fill="#c5ff00" stroke="transparent" points="586,-520.5 586,-545.5 611,-545.5 611,-520.5 586,-520.5"/>
<text text-anchor="start" x="591.8262" y="-530.2994" font-family="arial" font-size="12.00" fill="#000000">12</text>
<polygon fill="#daff00" stroke="transparent" points="613,-520.5 613,-545.5 638,-545.5 638,-520.5 613,-520.5"/>
<text text-anchor="start" x="618.8262" y="-530.2994" font-family="arial" font-size="12.00" fill="#000000">14</text>
<polygon fill="#7fff00" stroke="transparent" points="640,-520.5 640,-545.5 665,-545.5 665,-520.5 640,-520.5"/>
<text text-anchor="start" x="649.1631" y="-530.2994" font-family="arial" font-size="12.00" fill="#000000">5</text>
<text text-anchor="start" x="541.9746" y="-506.9" font-family="arial" font-size="12.00" fill="#000000">seed maturation</text>
<text text-anchor="start" x="550.6406" y="-493.1012" font-family="arial" font-size="12.00" fill="#c0c0c0">GO:0010431</text>
</g>
<!-- GO_0010431&#45;&#45;GO_0010162 -->
<g id="edge4" class="edge">
<title>GO_0010431&#45;&#45;GO_0010162</title>
<path fill="none" stroke="#000000" d="M622.7101,-452.9826C630.4148,-441.231 638.5241,-428.8622 646.2309,-417.1075"/>
</g>
<!-- GO_0003006 -->
<g id="node8" class="node">
<title>GO_0003006</title>
<polygon fill="none" stroke="#000000" points="675,-719 495,-719 495,-604 675,-604 675,-719"/>
<text text-anchor="start" x="583.333" y="-703.9" font-family="arial" font-size="12.00" fill="#000000"> </text>
<polygon fill="#b2b2b2" stroke="transparent" points="505,-671.5 505,-696.5 530,-696.5 530,-671.5 505,-671.5"/>
<text text-anchor="start" x="514.1631" y="-681.2994" font-family="arial" font-size="12.00" fill="#000000">0</text>
<polygon fill="#b2b2b2" stroke="transparent" points="532,-671.5 532,-696.5 557,-696.5 557,-671.5 532,-671.5"/>
<text text-anchor="start" x="541.1631" y="-681.2994" font-family="arial" font-size="12.00" fill="#000000">0</text>
<polygon fill="#b2b2b2" stroke="transparent" points="559,-671.5 559,-696.5 584,-696.5 584,-671.5 559,-671.5"/>
<text text-anchor="start" x="568.1631" y="-681.2994" font-family="arial" font-size="12.00" fill="#000000">0</text>
<polygon fill="#b2b2b2" stroke="transparent" points="586,-671.5 586,-696.5 611,-696.5 611,-671.5 586,-671.5"/>
<text text-anchor="start" x="595.1631" y="-681.2994" font-family="arial" font-size="12.00" fill="#000000">0</text>
<polygon fill="#b2b2b2" stroke="transparent" points="613,-671.5 613,-696.5 638,-696.5 638,-671.5 613,-671.5"/>
<text text-anchor="start" x="622.1631" y="-681.2994" font-family="arial" font-size="12.00" fill="#000000">0</text>
<polygon fill="#b2b2b2" stroke="transparent" points="640,-671.5 640,-696.5 665,-696.5 665,-671.5 640,-671.5"/>
<text text-anchor="start" x="649.1631" y="-681.2994" font-family="arial" font-size="12.00" fill="#000000">0</text>
<text text-anchor="start" x="523.2979" y="-657.9" font-family="arial" font-size="12.00" fill="#000000">developmental process</text>
<text text-anchor="start" x="521.6279" y="-644.1012" font-family="arial" font-size="12.00" fill="#000000">involved in reproduction</text>
<text text-anchor="start" x="550.6406" y="-630.3023" font-family="arial" font-size="12.00" fill="#c0c0c0">GO:0003006</text>
</g>
<!-- GO_0003006&#45;&#45;GO_0010431 -->
<g id="edge8" class="edge">
<title>GO_0003006&#45;&#45;GO_0010431</title>
<path fill="none" stroke="#000000" stroke-dasharray="1,5" d="M585,-603.9826C585,-592.231 585,-579.8622 585,-568.1075"/>
</g>
<!-- GO_0010228 -->
<g id="node9" class="node">
<title>GO_0010228</title>
<polygon fill="none" stroke="#000000" points="877,-568 693,-568 693,-453 877,-453 877,-568"/>
<text text-anchor="start" x="783.333" y="-552.9" font-family="arial" font-size="12.00" fill="#000000"> </text>
<polygon fill="#f8ff00" stroke="transparent" points="704,-520.5 704,-545.5 729,-545.5 729,-520.5 704,-520.5"/>
<text text-anchor="start" x="709.8262" y="-530.2994" font-family="arial" font-size="12.00" fill="#000000">17</text>
<polygon fill="#ffc900" stroke="transparent" points="732.5,-520.5 732.5,-545.5 757.5,-545.5 757.5,-520.5 732.5,-520.5"/>
<text text-anchor="start" x="738.3262" y="-530.2994" font-family="arial" font-size="12.00" fill="#000000">23</text>
<polygon fill="#ffab00" stroke="transparent" points="760,-520.5 760,-545.5 785,-545.5 785,-520.5 760,-520.5"/>
<text text-anchor="start" x="765.8262" y="-530.2994" font-family="arial" font-size="12.00" fill="#000000">26</text>
<polygon fill="#b2b2b2" stroke="transparent" points="787,-520.5 787,-545.5 812,-545.5 812,-520.5 787,-520.5"/>
<text text-anchor="start" x="796.1631" y="-530.2994" font-family="arial" font-size="12.00" fill="#000000">0</text>
<polygon fill="#ff5a00" stroke="transparent" points="814,-520.5 814,-545.5 839,-545.5 839,-520.5 814,-520.5"/>
<text text-anchor="start" x="819.8262" y="-530.2994" font-family="arial" font-size="12.00" fill="#000000">34</text>
<polygon fill="#e4ff00" stroke="transparent" points="841.5,-520.5 841.5,-545.5 866.5,-545.5 866.5,-520.5 841.5,-520.5"/>
<text text-anchor="start" x="847.3262" y="-530.2994" font-family="arial" font-size="12.00" fill="#000000">15</text>
<text text-anchor="start" x="716.293" y="-506.9" font-family="arial" font-size="12.00" fill="#000000">vegetative to reproductive</text>
<text text-anchor="start" x="709.6338" y="-493.1012" font-family="arial" font-size="12.00" fill="#000000">phase transition of meristem</text>
<text text-anchor="start" x="750.6406" y="-479.3023" font-family="arial" font-size="12.00" fill="#c0c0c0">GO:0010228</text>
</g>
<!-- GO_0003006&#45;&#45;GO_0010228 -->
<g id="edge9" class="edge">
<title>GO_0003006&#45;&#45;GO_0010228</title>
<path fill="none" stroke="#000000" stroke-dasharray="1,5" d="M661.182,-603.9826C676.747,-592.231 693.1295,-579.8622 708.6987,-568.1075"/>
</g>
<!-- GO_0048439 -->
<g id="node12" class="node">
<title>GO_0048439</title>
<polygon fill="none" stroke="#000000" points="1075,-568 895,-568 895,-453 1075,-453 1075,-568"/>
<text text-anchor="start" x="983.333" y="-552.9" font-family="arial" font-size="12.00" fill="#000000"> </text>
<polygon fill="#b2b2b2" stroke="transparent" points="905,-520.5 905,-545.5 930,-545.5 930,-520.5 905,-520.5"/>
<text text-anchor="start" x="914.1631" y="-530.2994" font-family="arial" font-size="12.00" fill="#000000">0</text>
<polygon fill="#b2b2b2" stroke="transparent" points="932,-520.5 932,-545.5 957,-545.5 957,-520.5 932,-520.5"/>
<text text-anchor="start" x="941.1631" y="-530.2994" font-family="arial" font-size="12.00" fill="#000000">0</text>
<polygon fill="#b2b2b2" stroke="transparent" points="959,-520.5 959,-545.5 984,-545.5 984,-520.5 959,-520.5"/>
<text text-anchor="start" x="968.1631" y="-530.2994" font-family="arial" font-size="12.00" fill="#000000">0</text>
<polygon fill="#7fff00" stroke="transparent" points="986,-520.5 986,-545.5 1011,-545.5 1011,-520.5 986,-520.5"/>
<text text-anchor="start" x="995.1631" y="-530.2994" font-family="arial" font-size="12.00" fill="#000000">5</text>
<polygon fill="#b2b2b2" stroke="transparent" points="1013,-520.5 1013,-545.5 1038,-545.5 1038,-520.5 1013,-520.5"/>
<text text-anchor="start" x="1022.1631" y="-530.2994" font-family="arial" font-size="12.00" fill="#000000">0</text>
<polygon fill="#b2b2b2" stroke="transparent" points="1040,-520.5 1040,-545.5 1065,-545.5 1065,-520.5 1040,-520.5"/>
<text text-anchor="start" x="1049.1631" y="-530.2994" font-family="arial" font-size="12.00" fill="#000000">0</text>
<text text-anchor="start" x="926.3037" y="-506.9" font-family="arial" font-size="12.00" fill="#000000">flower morphogenesis</text>
<text text-anchor="start" x="950.6406" y="-493.1012" font-family="arial" font-size="12.00" fill="#c0c0c0">GO:0048439</text>
</g>
<!-- GO_0003006&#45;&#45;GO_0048439 -->
<g id="edge14" class="edge">
<title>GO_0003006&#45;&#45;GO_0048439</title>
<path fill="none" stroke="#000000" stroke-dasharray="1,5" d="M675.1562,-639.2075C735.9796,-622.7943 817.3572,-598.1355 886,-568 888.9119,-566.7216 891.8466,-565.3784 894.7898,-563.9835"/>
</g>
<!-- GO_0048437 -->
<g id="node13" class="node">
<title>GO_0048437</title>
<polygon fill="none" stroke="#000000" points="180,-417 0,-417 0,-302 180,-302 180,-417"/>
<text text-anchor="start" x="88.333" y="-401.9" font-family="arial" font-size="12.00" fill="#000000"> </text>
<polygon fill="#b2b2b2" stroke="transparent" points="10,-369.5 10,-394.5 35,-394.5 35,-369.5 10,-369.5"/>
<text text-anchor="start" x="19.1631" y="-379.2994" font-family="arial" font-size="12.00" fill="#000000">0</text>
<polygon fill="#ffa100" stroke="transparent" points="37,-369.5 37,-394.5 62,-394.5 62,-369.5 37,-369.5"/>
<text text-anchor="start" x="42.8262" y="-379.2994" font-family="arial" font-size="12.00" fill="#000000">27</text>
<polygon fill="#ff7800" stroke="transparent" points="64,-369.5 64,-394.5 89,-394.5 89,-369.5 64,-369.5"/>
<text text-anchor="start" x="69.8262" y="-379.2994" font-family="arial" font-size="12.00" fill="#000000">31</text>
<polygon fill="#ff9600" stroke="transparent" points="91,-369.5 91,-394.5 116,-394.5 116,-369.5 91,-369.5"/>
<text text-anchor="start" x="96.8262" y="-379.2994" font-family="arial" font-size="12.00" fill="#000000">28</text>
<polygon fill="#ff0000" stroke="transparent" points="118,-369.5 118,-394.5 143,-394.5 143,-369.5 118,-369.5"/>
<text text-anchor="start" x="123.8262" y="-379.2994" font-family="arial" font-size="12.00" fill="#000000">43</text>
<polygon fill="#b2b2b2" stroke="transparent" points="145,-369.5 145,-394.5 170,-394.5 170,-369.5 145,-369.5"/>
<text text-anchor="start" x="154.1631" y="-379.2994" font-family="arial" font-size="12.00" fill="#000000">0</text>
<text text-anchor="start" x="23.959" y="-355.9" font-family="arial" font-size="12.00" fill="#000000">floral organ development</text>
<text text-anchor="start" x="55.6406" y="-342.1012" font-family="arial" font-size="12.00" fill="#c0c0c0">GO:0048437</text>
</g>
<!-- GO_0003006&#45;&#45;GO_0048437 -->
<g id="edge15" class="edge">
<title>GO_0003006&#45;&#45;GO_0048437</title>
<path fill="none" stroke="#000000" stroke-dasharray="1,5" d="M494.8689,-645.548C433.2302,-631.7642 351.5086,-607.6494 288,-568 224.6951,-528.4777 167.8028,-464.0098 131.4229,-417.2107"/>
</g>
<!-- GO_0048438 -->
<g id="node14" class="node">
<title>GO_0048438</title>
<polygon fill="none" stroke="#000000" points="477,-568 297,-568 297,-453 477,-453 477,-568"/>
<text text-anchor="start" x="385.333" y="-552.9" font-family="arial" font-size="12.00" fill="#000000"> </text>
<polygon fill="#b2b2b2" stroke="transparent" points="307,-520.5 307,-545.5 332,-545.5 332,-520.5 307,-520.5"/>
<text text-anchor="start" x="316.1631" y="-530.2994" font-family="arial" font-size="12.00" fill="#000000">0</text>
<polygon fill="#ffb500" stroke="transparent" points="334,-520.5 334,-545.5 359,-545.5 359,-520.5 334,-520.5"/>
<text text-anchor="start" x="339.8262" y="-530.2994" font-family="arial" font-size="12.00" fill="#000000">25</text>
<polygon fill="#ff9600" stroke="transparent" points="361,-520.5 361,-545.5 386,-545.5 386,-520.5 361,-520.5"/>
<text text-anchor="start" x="366.8262" y="-530.2994" font-family="arial" font-size="12.00" fill="#000000">28</text>
<polygon fill="#b2b2b2" stroke="transparent" points="388,-520.5 388,-545.5 413,-545.5 413,-520.5 388,-520.5"/>
<text text-anchor="start" x="397.1631" y="-530.2994" font-family="arial" font-size="12.00" fill="#000000">0</text>
<polygon fill="#ff3c00" stroke="transparent" points="415,-520.5 415,-545.5 440,-545.5 440,-520.5 415,-520.5"/>
<text text-anchor="start" x="420.8262" y="-530.2994" font-family="arial" font-size="12.00" fill="#000000">37</text>
<polygon fill="#b2b2b2" stroke="transparent" points="442,-520.5 442,-545.5 467,-545.5 467,-520.5 442,-520.5"/>
<text text-anchor="start" x="451.1631" y="-530.2994" font-family="arial" font-size="12.00" fill="#000000">0</text>
<text text-anchor="start" x="321.9668" y="-506.9" font-family="arial" font-size="12.00" fill="#000000">floral whorl development</text>
<text text-anchor="start" x="352.6406" y="-493.1012" font-family="arial" font-size="12.00" fill="#c0c0c0">GO:0048438</text>
</g>
<!-- GO_0003006&#45;&#45;GO_0048438 -->
<g id="edge16" class="edge">
<title>GO_0003006&#45;&#45;GO_0048438</title>
<path fill="none" stroke="#000000" stroke-dasharray="1,5" d="M509.5799,-603.9826C494.1705,-592.231 477.9518,-579.8622 462.5383,-568.1075"/>
</g>
<!-- GO_0048441&#45;&#45;GO_0048446 -->
<g id="edge13" class="edge">
<title>GO_0048441&#45;&#45;GO_0048446</title>
<path fill="none" stroke="#000000" d="M288,-150.9826C288,-139.231 288,-126.8622 288,-115.1075"/>
</g>
<!-- GO_0048437&#45;&#45;GO_0048442 -->
<g id="edge2" class="edge">
<title>GO_0048437&#45;&#45;GO_0048442</title>
<path fill="none" stroke="#000000" d="M180.02,-305.5448C183.0181,-304.2862 186.0159,-303.0995 189,-302 272.927,-271.0766 303.073,-296.9234 387,-266 389.9841,-264.9005 392.9819,-263.7138 395.98,-262.4552"/>
</g>
<!-- GO_0048437&#45;&#45;GO_0048444 -->
<g id="edge6" class="edge">
<title>GO_0048437&#45;&#45;GO_0048444</title>
<path fill="none" stroke="#000000" d="M90,-301.9826C90,-290.231 90,-277.8622 90,-266.1075"/>
</g>
<!-- GO_0048437&#45;&#45;GO_0048441 -->
<g id="edge11" class="edge">
<title>GO_0048437&#45;&#45;GO_0048441</title>
<path fill="none" stroke="#000000" d="M165.4201,-301.9826C180.8295,-290.231 197.0482,-277.8622 212.4617,-266.1075"/>
</g>
<!-- GO_0048438&#45;&#45;GO_0048465 -->
<g id="edge1" class="edge">
<title>GO_0048438&#45;&#45;GO_0048465</title>
<path fill="none" stroke="#000000" d="M349.2899,-452.9826C341.5852,-441.231 333.4759,-428.8622 325.7691,-417.1075"/>
</g>
<!-- GO_0048438&#45;&#45;GO_0048464 -->
<g id="edge7" class="edge">
<title>GO_0048438&#45;&#45;GO_0048464</title>
<path fill="none" stroke="#000000" d="M424.7101,-452.9826C432.4148,-441.231 440.5241,-428.8622 448.2309,-417.1075"/>
</g>
</g>
</svg>
