<?xml version="1.0" encoding="utf-8"?>
<!-- Generator: Adobe Illustrator 21.1.0, SVG Export Plug-In . SVG Version: 6.00 Build 0)  -->
<svg version="1.1" id="Layer_1" xmlns="http://www.w3.org/2000/svg" xmlns:xlink="http://www.w3.org/1999/xlink" x="0px" y="0px"
	 viewBox="0 0 724.9 442" style="enable-background:new 0 0 724.9 442;" xml:space="preserve">
<style type="text/css">
	.st0{fill:#FFFFFF;}
	.st1{fill:#00B050;}
	.st2{clip-path:url(#SVGID_2_);fill:none;stroke:#00B050;stroke-width:10;stroke-miterlimit:8;}
	.st3{clip-path:url(#SVGID_4_);fill:none;stroke:#00B050;stroke-width:10;stroke-miterlimit:8;}
	.st4{fill:#4472C4;}
	.st5{clip-path:url(#SVGID_6_);fill:none;stroke:#00B050;stroke-width:10;stroke-miterlimit:8;}
	.st6{clip-path:url(#SVGID_8_);fill:none;stroke:#00B050;stroke-width:10;stroke-miterlimit:8;}
	.st7{fill:#FFC000;}
	.st8{clip-path:url(#SVGID_10_);fill:none;stroke:#92D050;stroke-width:10;stroke-miterlimit:8;}
	.st9{clip-path:url(#SVGID_12_);fill:none;stroke:#92D050;stroke-width:10;stroke-miterlimit:8;}
	.st10{fill:#843C0C;}
	.st11{clip-path:url(#SVGID_14_);fill:none;stroke:#FFFF00;stroke-width:10;stroke-miterlimit:8;}
	.st12{clip-path:url(#SVGID_16_);fill:none;stroke:#FFFF00;stroke-width:10;stroke-miterlimit:8;}
	.st13{clip-path:url(#SVGID_18_);fill:none;stroke:#FFFF00;stroke-width:10;stroke-miterlimit:8;}
	.st14{clip-path:url(#SVGID_20_);fill:none;stroke:#FFFF00;stroke-width:10;stroke-miterlimit:8;}
	.st15{clip-path:url(#SVGID_22_);fill:none;stroke:#FFFF00;stroke-width:10;stroke-miterlimit:8;}
	.st16{clip-path:url(#SVGID_24_);fill:none;stroke:#FFFF00;stroke-width:10;stroke-miterlimit:8;}
	.st17{clip-path:url(#SVGID_26_);fill:none;stroke:#FFFF00;stroke-width:10;stroke-miterlimit:8;}
	.st18{clip-path:url(#SVGID_28_);fill:none;stroke:#FFFF00;stroke-width:10;stroke-miterlimit:8;}
	.st19{clip-path:url(#SVGID_30_);fill:none;stroke:#FFFF00;stroke-width:10;stroke-linecap:square;stroke-miterlimit:8;}
	.st20{clip-path:url(#SVGID_32_);fill:none;stroke:#FFC000;stroke-width:10;stroke-miterlimit:8;}
	.st21{clip-path:url(#SVGID_34_);fill:none;stroke:#FFC000;stroke-width:10;stroke-miterlimit:8;}
	.st22{clip-path:url(#SVGID_36_);fill:none;stroke:#FFC000;stroke-width:10;stroke-miterlimit:8;}
	.st23{fill:#FF0000;}
	.st24{clip-path:url(#SVGID_38_);fill:none;stroke:#FF0000;stroke-width:10;stroke-miterlimit:8;}
	.st25{clip-path:url(#SVGID_40_);fill:none;stroke:#C00000;stroke-width:10;stroke-miterlimit:8;}
	.st26{clip-path:url(#SVGID_42_);fill:none;stroke:#C00000;stroke-width:10;stroke-miterlimit:8;}
	.st27{clip-path:url(#SVGID_44_);fill:none;stroke:#C00000;stroke-width:10;stroke-miterlimit:8;}
	.st28{clip-path:url(#SVGID_46_);fill:none;stroke:#000000;stroke-linejoin:round;stroke-miterlimit:10;}
	.st29{fill:none;stroke:#777777;stroke-linejoin:round;stroke-miterlimit:10;}
	.st30{font-family:'ArialMT';}
	.st31{font-size:10px;}
	.st32{clip-path:url(#SVGID_48_);}
	.st33{font-size:12px;}
	.st34{font-family:'Arial-BoldMT';}
	.st35{fill:#92D050;}
	.st36{fill:#FFFF00;}
	.st37{fill:#C00000;}
</style>
<rect class="st0" width="724.9" height="442.2"/>
<rect x="6.3" y="328.6" class="st1" width="1" height="71.9"/>
<g>
	<defs>
		<rect id="SVGID_1_" x="5" y="5" width="717" height="396"/>
	</defs>
	<clipPath id="SVGID_2_">
		<use xlink:href="#SVGID_1_"  style="overflow:visible;"/>
	</clipPath>
	<rect x="6.3" y="328.6" class="st2" width="1" height="71.9"/>
</g>
<rect x="33.4" y="292.6" class="st1" width="1" height="107.8"/>
<g>
	<defs>
		<rect id="SVGID_3_" x="5" y="5" width="717" height="396"/>
	</defs>
	<clipPath id="SVGID_4_">
		<use xlink:href="#SVGID_3_"  style="overflow:visible;"/>
	</clipPath>
	<rect x="33.4" y="292.6" class="st3" width="1" height="107.8"/>
</g>
<rect x="41.7" y="292.6" class="st4" width="1" height="107.8"/>
<g>
	<defs>
		<rect id="SVGID_5_" x="5" y="5" width="717" height="396"/>
	</defs>
	<clipPath id="SVGID_6_">
		<use xlink:href="#SVGID_5_"  style="overflow:visible;"/>
	</clipPath>
	<rect x="41.7" y="292.6" class="st5" width="1" height="107.8"/>
</g>
<rect x="52.2" y="292.6" class="st4" width="1" height="107.8"/>
<g>
	<defs>
		<rect id="SVGID_7_" x="5" y="5" width="717" height="396"/>
	</defs>
	<clipPath id="SVGID_8_">
		<use xlink:href="#SVGID_7_"  style="overflow:visible;"/>
	</clipPath>
	<rect x="52.2" y="292.6" class="st6" width="1" height="107.8"/>
</g>
<rect x="91.7" y="220.7" class="st7" width="1" height="179.7"/>
<g>
	<defs>
		<rect id="SVGID_9_" x="5" y="5" width="717" height="396"/>
	</defs>
	<clipPath id="SVGID_10_">
		<use xlink:href="#SVGID_9_"  style="overflow:visible;"/>
	</clipPath>
	<rect x="91.7" y="220.7" class="st8" width="1" height="179.7"/>
</g>
<rect x="110.5" y="292.6" class="st7" width="1" height="107.8"/>
<g>
	<defs>
		<rect id="SVGID_11_" x="5" y="5" width="717" height="396"/>
	</defs>
	<clipPath id="SVGID_12_">
		<use xlink:href="#SVGID_11_"  style="overflow:visible;"/>
	</clipPath>
	<rect x="110.5" y="292.6" class="st9" width="1" height="107.8"/>
</g>
<rect x="137.5" y="364.5" class="st10" width="1" height="35.9"/>
<g>
	<defs>
		<rect id="SVGID_13_" x="5" y="5" width="717" height="396"/>
	</defs>
	<clipPath id="SVGID_14_">
		<use xlink:href="#SVGID_13_"  style="overflow:visible;"/>
	</clipPath>
	<rect x="137.5" y="364.5" class="st11" width="1" height="35.9"/>
</g>
<rect x="154.2" y="364.5" class="st10" width="1" height="35.9"/>
<g>
	<defs>
		<rect id="SVGID_15_" x="5" y="5" width="717" height="396"/>
	</defs>
	<clipPath id="SVGID_16_">
		<use xlink:href="#SVGID_15_"  style="overflow:visible;"/>
	</clipPath>
	<rect x="154.2" y="364.5" class="st12" width="1" height="35.9"/>
</g>
<rect x="164.6" y="364.5" class="st10" width="1" height="35.9"/>
<g>
	<defs>
		<rect id="SVGID_17_" x="5" y="5" width="717" height="396"/>
	</defs>
	<clipPath id="SVGID_18_">
		<use xlink:href="#SVGID_17_"  style="overflow:visible;"/>
	</clipPath>
	<rect x="164.6" y="364.5" class="st13" width="1" height="35.9"/>
</g>
<rect x="175" y="328.6" class="st10" width="1" height="71.9"/>
<g>
	<defs>
		<rect id="SVGID_19_" x="5" y="5" width="717" height="396"/>
	</defs>
	<clipPath id="SVGID_20_">
		<use xlink:href="#SVGID_19_"  style="overflow:visible;"/>
	</clipPath>
	<rect x="175" y="328.6" class="st14" width="1" height="71.9"/>
</g>
<rect x="195.9" y="364.5" class="st10" width="1" height="35.9"/>
<g>
	<defs>
		<rect id="SVGID_21_" x="5" y="5" width="717" height="396"/>
	</defs>
	<clipPath id="SVGID_22_">
		<use xlink:href="#SVGID_21_"  style="overflow:visible;"/>
	</clipPath>
	<rect x="195.9" y="364.5" class="st15" width="1" height="35.9"/>
</g>
<rect x="222.9" y="364.5" class="st10" width="1" height="35.9"/>
<g>
	<defs>
		<rect id="SVGID_23_" x="5" y="5" width="717" height="396"/>
	</defs>
	<clipPath id="SVGID_24_">
		<use xlink:href="#SVGID_23_"  style="overflow:visible;"/>
	</clipPath>
	<rect x="222.9" y="364.5" class="st16" width="1" height="35.9"/>
</g>
<rect x="237.5" y="364.5" class="st10" width="1" height="35.9"/>
<g>
	<defs>
		<rect id="SVGID_25_" x="5" y="5" width="717" height="396"/>
	</defs>
	<clipPath id="SVGID_26_">
		<use xlink:href="#SVGID_25_"  style="overflow:visible;"/>
	</clipPath>
	<rect x="237.5" y="364.5" class="st17" width="1" height="35.9"/>
</g>
<rect x="254.2" y="364.5" class="st10" width="1" height="35.9"/>
<g>
	<defs>
		<rect id="SVGID_27_" x="5" y="5" width="717" height="396"/>
	</defs>
	<clipPath id="SVGID_28_">
		<use xlink:href="#SVGID_27_"  style="overflow:visible;"/>
	</clipPath>
	<rect x="254.2" y="364.5" class="st18" width="1" height="35.9"/>
</g>
<rect x="268.7" y="328.6" class="st10" width="1" height="71.9"/>
<g>
	<defs>
		<rect id="SVGID_29_" x="5" y="5" width="717" height="396"/>
	</defs>
	<clipPath id="SVGID_30_">
		<use xlink:href="#SVGID_29_"  style="overflow:visible;"/>
	</clipPath>
	<rect x="268.7" y="328.6" class="st19" width="1" height="71.9"/>
</g>
<rect x="285.4" y="328.6" class="st4" width="1" height="71.9"/>
<g>
	<defs>
		<rect id="SVGID_31_" x="5" y="5" width="717" height="396"/>
	</defs>
	<clipPath id="SVGID_32_">
		<use xlink:href="#SVGID_31_"  style="overflow:visible;"/>
	</clipPath>
	<rect x="285.4" y="328.6" class="st20" width="1" height="71.9"/>
</g>
<rect x="354.1" y="364.5" class="st4" width="1" height="35.9"/>
<g>
	<defs>
		<rect id="SVGID_33_" x="5" y="5" width="717" height="396"/>
	</defs>
	<clipPath id="SVGID_34_">
		<use xlink:href="#SVGID_33_"  style="overflow:visible;"/>
	</clipPath>
	<rect x="354.1" y="364.5" class="st21" width="1" height="35.9"/>
</g>
<rect x="381.2" y="364.5" class="st4" width="1" height="35.9"/>
<g>
	<defs>
		<rect id="SVGID_35_" x="5" y="5" width="717" height="396"/>
	</defs>
	<clipPath id="SVGID_36_">
		<use xlink:href="#SVGID_35_"  style="overflow:visible;"/>
	</clipPath>
	<rect x="381.2" y="364.5" class="st22" width="1" height="35.9"/>
</g>
<rect x="383.3" y="41" class="st23" width="1" height="359.4"/>
<g>
	<defs>
		<rect id="SVGID_37_" x="5" y="5" width="717" height="396"/>
	</defs>
	<clipPath id="SVGID_38_">
		<use xlink:href="#SVGID_37_"  style="overflow:visible;"/>
	</clipPath>
	<rect x="383.3" y="41" class="st24" width="1" height="359.4"/>
</g>
<rect x="427" y="364.5" width="1" height="35.9"/>
<g>
	<defs>
		<rect id="SVGID_39_" x="5" y="5" width="717" height="396"/>
	</defs>
	<clipPath id="SVGID_40_">
		<use xlink:href="#SVGID_39_"  style="overflow:visible;"/>
	</clipPath>
	<rect x="427" y="364.5" class="st25" width="1" height="35.9"/>
</g>
<rect x="454.1" y="364.5" width="1" height="35.9"/>
<g>
	<defs>
		<rect id="SVGID_41_" x="5" y="5" width="717" height="396"/>
	</defs>
	<clipPath id="SVGID_42_">
		<use xlink:href="#SVGID_41_"  style="overflow:visible;"/>
	</clipPath>
	<rect x="454.1" y="364.5" class="st26" width="1" height="35.9"/>
</g>
<rect x="720.7" y="364.5" class="st4" width="1" height="35.9"/>
<g>
	<defs>
		<rect id="SVGID_43_" x="5" y="5" width="717" height="396"/>
	</defs>
	<clipPath id="SVGID_44_">
		<use xlink:href="#SVGID_43_"  style="overflow:visible;"/>
	</clipPath>
	<rect x="720.7" y="364.5" class="st27" width="1" height="35.9"/>
</g>
<g>
	<defs>
		<rect id="SVGID_45_" width="724" height="442"/>
	</defs>
	<clipPath id="SVGID_46_">
		<use xlink:href="#SVGID_45_"  style="overflow:visible;"/>
	</clipPath>
	<line class="st28" x1="5.6" y1="400.4" x2="722" y2="400.4"/>
</g>
<path class="st29" d="M713.7,400.4v3.6 M693,400.4v3.6 M672,400.4v3.6 M651,400.4v3.6 M630,400.4v3.6 M610,400.4v3.6 M589,400.4v3.6
	 M568,400.4v3.6 M547,400.4v3.6 M526,400.4v3.6 M505,400.4v3.6 M485,400.4v3.6 M464,400.4v3.6 M443,400.4v3.6 M422,400.4v3.6
	 M401,400.4v3.6 M380,400.4v3.6 M360,400.4v3.6 M339,400.4v3.6 M318,400.4v3.6 M297,400.4v3.6 M276,400.4v3.6 M256,400.4v3.6
	 M235,400.4v3.6 M214,400.4v3.6 M193,400.4v3.6 M172,400.4v3.6 M151,400.4v3.6 M131,400.4v3.6 M110,400.4v3.6 M89,400.4v3.6
	 M68,400.4v3.6 M47,400.4v3.6 M26,400.4v3.6 M5.6,400.4v3.6"/>
<text transform="matrix(1 0 0 1 3.1821 322)" class="st30 st31">2</text>
<text transform="matrix(1 0 0 1 30.252 286)" class="st30 st31">3</text>
<text transform="matrix(1 0 0 1 38.582 286)" class="st30 st31">3</text>
<text transform="matrix(1 0 0 1 48.9917 286)" class="st30 st31">3</text>
<text transform="matrix(1 0 0 1 88.562 214)" class="st30 st31">5</text>
<text transform="matrix(1 0 0 1 107.3018 286)" class="st30 st31">3</text>
<text transform="matrix(1 0 0 1 134.3721 358)" class="st30 st31">1</text>
<text transform="matrix(1 0 0 1 151.0317 358)" class="st30 st31">1</text>
<text transform="matrix(1 0 0 1 161.4419 358)" class="st30 st31">1</text>
<text transform="matrix(1 0 0 1 171.8521 322)" class="st30 st31">2</text>
<text transform="matrix(1 0 0 1 192.6821 358)" class="st30 st31">1</text>
<text transform="matrix(1 0 0 1 219.752 358)" class="st30 st31">1</text>
<text transform="matrix(1 0 0 1 234.332 358)" class="st30 st31">1</text>
<text transform="matrix(1 0 0 1 250.9917 358)" class="st30 st31">1</text>
<text transform="matrix(1 0 0 1 265.5718 322)" class="st30 st31">2</text>
<text transform="matrix(1 0 0 1 282.2319 322)" class="st30 st31">2</text>
<text transform="matrix(1 0 0 1 350.9517 358)" class="st30 st31">1</text>
<text transform="matrix(1 0 0 1 378.0215 358)" class="st30 st31">1</text>
<text transform="matrix(1 0 0 1 377.1016 34)"><tspan x="0" y="0" class="st30 st31">1</tspan><tspan x="6" y="0" class="st30 st31">0</tspan></text>
<text transform="matrix(1 0 0 1 423.832 358)" class="st30 st31">1</text>
<text transform="matrix(1 0 0 1 450.9023 358)" class="st30 st31">1</text>
<text transform="matrix(1 0 0 1 715.5615 358)" class="st30 st31">1</text>
<g>
	<defs>
		<rect id="SVGID_47_" width="724" height="442"/>
	</defs>
	<clipPath id="SVGID_48_">
		<use xlink:href="#SVGID_47_"  style="overflow:visible;"/>
	</clipPath>
	<g class="st32">
		<text transform="matrix(-6.123234e-17 -1 1 -6.123234e-17 10.9669 428)"><tspan x="0" y="0" class="st30 st33">1</tspan><tspan x="7" y="0" class="st30 st33">1</tspan><tspan x="13" y="0" class="st30 st33">3</tspan></text>
	</g>
</g>
<text transform="matrix(-6.123234e-17 -1 1 -6.123234e-17 31.7926 428.0005)"><tspan x="0" y="0" class="st30 st33">1</tspan><tspan x="7" y="0" class="st30 st33">2</tspan><tspan x="13" y="0" class="st30 st33">3</tspan></text>
<text transform="matrix(-6.123234e-17 -1 1 -6.123234e-17 52.6126 427.9995)"><tspan x="0" y="0" class="st30 st33">1</tspan><tspan x="7" y="0" class="st30 st33">3</tspan><tspan x="13" y="0" class="st30 st33">3</tspan></text>
<text transform="matrix(-6.123234e-17 -1 1 -6.123234e-17 73.4326 428)"><tspan x="0" y="0" class="st30 st33">1</tspan><tspan x="7" y="0" class="st30 st33">4</tspan><tspan x="13" y="0" class="st30 st33">3</tspan></text>
<text transform="matrix(-6.123234e-17 -1 1 -6.123234e-17 94.2526 428.0005)"><tspan x="0" y="0" class="st30 st33">1</tspan><tspan x="7" y="0" class="st30 st33">5</tspan><tspan x="13" y="0" class="st30 st33">3</tspan></text>
<text transform="matrix(-6.123234e-17 -1 1 -6.123234e-17 115.0726 427.9995)"><tspan x="0" y="0" class="st30 st33">1</tspan><tspan x="7" y="0" class="st30 st33">6</tspan><tspan x="13" y="0" class="st30 st33">3</tspan></text>
<text transform="matrix(-6.123234e-17 -1 1 -6.123234e-17 135.8926 428)"><tspan x="0" y="0" class="st30 st33">1</tspan><tspan x="7" y="0" class="st30 st33">7</tspan><tspan x="13" y="0" class="st30 st33">3</tspan></text>
<text transform="matrix(-6.123234e-17 -1 1 -6.123234e-17 156.7126 428.0005)"><tspan x="0" y="0" class="st30 st33">1</tspan><tspan x="7" y="0" class="st30 st33">8</tspan><tspan x="13" y="0" class="st30 st33">3</tspan></text>
<text transform="matrix(-6.123234e-17 -1 1 -6.123234e-17 177.5326 428.0005)"><tspan x="0" y="0" class="st30 st33">1</tspan><tspan x="7" y="0" class="st30 st33">9</tspan><tspan x="13" y="0" class="st30 st33">3</tspan></text>
<text transform="matrix(-6.123234e-17 -1 1 -6.123234e-17 198.3526 428.001)"><tspan x="0" y="0" class="st30 st33">2</tspan><tspan x="7" y="0" class="st30 st33">0</tspan><tspan x="13" y="0" class="st30 st33">3</tspan></text>
<text transform="matrix(-6.123234e-17 -1 1 -6.123234e-17 219.1726 427.999)"><tspan x="0" y="0" class="st30 st33">2</tspan><tspan x="7" y="0" class="st30 st33">1</tspan><tspan x="13" y="0" class="st30 st33">3</tspan></text>
<text transform="matrix(-6.123234e-17 -1 1 -6.123234e-17 239.9926 427.9995)"><tspan x="0" y="0" class="st30 st33">2</tspan><tspan x="7" y="0" class="st30 st33">2</tspan><tspan x="13" y="0" class="st30 st33">3</tspan></text>
<text transform="matrix(-6.123234e-17 -1 1 -6.123234e-17 260.8127 428)"><tspan x="0" y="0" class="st30 st33">2</tspan><tspan x="7" y="0" class="st30 st33">3</tspan><tspan x="13" y="0" class="st30 st33">3</tspan></text>
<text transform="matrix(-6.123234e-17 -1 1 -6.123234e-17 281.6327 428)"><tspan x="0" y="0" class="st30 st33">2</tspan><tspan x="7" y="0" class="st30 st33">4</tspan><tspan x="13" y="0" class="st30 st33">3</tspan></text>
<text transform="matrix(-6.123234e-17 -1 1 -6.123234e-17 302.4527 428.0005)"><tspan x="0" y="0" class="st30 st33">2</tspan><tspan x="7" y="0" class="st30 st33">5</tspan><tspan x="13" y="0" class="st30 st33">3</tspan></text>
<text transform="matrix(-6.123234e-17 -1 1 -6.123234e-17 323.2727 428.001)"><tspan x="0" y="0" class="st30 st33">2</tspan><tspan x="7" y="0" class="st30 st33">6</tspan><tspan x="13" y="0" class="st30 st33">3</tspan></text>
<text transform="matrix(-6.123234e-17 -1 1 -6.123234e-17 344.0927 427.999)"><tspan x="0" y="0" class="st30 st33">2</tspan><tspan x="7" y="0" class="st30 st33">7</tspan><tspan x="13" y="0" class="st30 st33">3</tspan></text>
<text transform="matrix(-6.123234e-17 -1 1 -6.123234e-17 364.9127 427.999)"><tspan x="0" y="0" class="st30 st33">2</tspan><tspan x="7" y="0" class="st30 st33">8</tspan><tspan x="13" y="0" class="st30 st33">3</tspan></text>
<text transform="matrix(-6.123234e-17 -1 1 -6.123234e-17 385.7327 428)"><tspan x="0" y="0" class="st30 st33">2</tspan><tspan x="7" y="0" class="st30 st33">9</tspan><tspan x="13" y="0" class="st30 st33">3</tspan></text>
<text transform="matrix(-6.123234e-17 -1 1 -6.123234e-17 406.5527 428)"><tspan x="0" y="0" class="st30 st33">3</tspan><tspan x="7" y="0" class="st30 st33">0</tspan><tspan x="13" y="0" class="st30 st33">3</tspan></text>
<text transform="matrix(-6.123234e-17 -1 1 -6.123234e-17 427.3727 428)"><tspan x="0" y="0" class="st30 st33">3</tspan><tspan x="7" y="0" class="st30 st33">1</tspan><tspan x="13" y="0" class="st30 st33">3</tspan></text>
<text transform="matrix(-6.123234e-17 -1 1 -6.123234e-17 448.1927 428.001)"><tspan x="0" y="0" class="st30 st33">3</tspan><tspan x="7" y="0" class="st30 st33">2</tspan><tspan x="13" y="0" class="st30 st33">3</tspan></text>
<text transform="matrix(-6.123234e-17 -1 1 -6.123234e-17 469.0127 427.999)"><tspan x="0" y="0" class="st30 st33">3</tspan><tspan x="7" y="0" class="st30 st33">3</tspan><tspan x="13" y="0" class="st30 st33">3</tspan></text>
<text transform="matrix(-6.123234e-17 -1 1 -6.123234e-17 489.8447 427.999)"><tspan x="0" y="0" class="st30 st33">3</tspan><tspan x="7" y="0" class="st30 st33">4</tspan><tspan x="13" y="0" class="st30 st33">3</tspan></text>
<text transform="matrix(-6.123234e-17 -1 1 -6.123234e-17 510.6647 427.999)"><tspan x="0" y="0" class="st30 st33">3</tspan><tspan x="7" y="0" class="st30 st33">5</tspan><tspan x="13" y="0" class="st30 st33">3</tspan></text>
<text transform="matrix(-6.123234e-17 -1 1 -6.123234e-17 531.4847 428)"><tspan x="0" y="0" class="st30 st33">3</tspan><tspan x="7" y="0" class="st30 st33">6</tspan><tspan x="13" y="0" class="st30 st33">3</tspan></text>
<text transform="matrix(-6.123234e-17 -1 1 -6.123234e-17 552.3047 428)"><tspan x="0" y="0" class="st30 st33">3</tspan><tspan x="7" y="0" class="st30 st33">7</tspan><tspan x="13" y="0" class="st30 st33">3</tspan></text>
<text transform="matrix(-6.123234e-17 -1 1 -6.123234e-17 573.1247 428)"><tspan x="0" y="0" class="st30 st33">3</tspan><tspan x="7" y="0" class="st30 st33">8</tspan><tspan x="13" y="0" class="st30 st33">3</tspan></text>
<text transform="matrix(-6.123234e-17 -1 1 -6.123234e-17 593.9447 428.001)"><tspan x="0" y="0" class="st30 st33">3</tspan><tspan x="7" y="0" class="st30 st33">9</tspan><tspan x="13" y="0" class="st30 st33">3</tspan></text>
<text transform="matrix(-6.123234e-17 -1 1 -6.123234e-17 614.7647 428.001)"><tspan x="0" y="0" class="st30 st33">4</tspan><tspan x="7" y="0" class="st30 st33">0</tspan><tspan x="13" y="0" class="st30 st33">3</tspan></text>
<text transform="matrix(-6.123234e-17 -1 1 -6.123234e-17 635.5847 427.999)"><tspan x="0" y="0" class="st30 st33">4</tspan><tspan x="7" y="0" class="st30 st33">1</tspan><tspan x="13" y="0" class="st30 st33">3</tspan></text>
<text transform="matrix(-6.123234e-17 -1 1 -6.123234e-17 656.4167 427.999)"><tspan x="0" y="0" class="st30 st33">4</tspan><tspan x="7" y="0" class="st30 st33">2</tspan><tspan x="13" y="0" class="st30 st33">3</tspan></text>
<text transform="matrix(-6.123234e-17 -1 1 -6.123234e-17 677.2367 428)"><tspan x="0" y="0" class="st30 st33">4</tspan><tspan x="7" y="0" class="st30 st33">3</tspan><tspan x="13" y="0" class="st30 st33">3</tspan></text>
<text transform="matrix(-6.123234e-17 -1 1 -6.123234e-17 698.0567 428)"><tspan x="0" y="0" class="st30 st33">4</tspan><tspan x="7" y="0" class="st30 st33">4</tspan><tspan x="13" y="0" class="st30 st33">3</tspan></text>
<text transform="matrix(-6.123234e-17 -1 1 -6.123234e-17 718.8767 428)"><tspan x="0" y="0" class="st30 st33">4</tspan><tspan x="7" y="0" class="st30 st33">5</tspan><tspan x="13" y="0" class="st30 st33">3</tspan></text>
<g>
	<rect x="477.4" y="53.4" class="st1" width="41.6" height="26.9"/>
	<text transform="matrix(1 0 0 1 530.6663 62.8044)"><tspan x="0" y="0" class="st34 st33">EF</tspan><tspan x="15.3" y="0" class="st30 st33"> - early flowering</tspan><tspan x="0" y="14.4" class="st30 st33">2017/11/28 - 2017/12/20</tspan></text>
</g>
<g>
	<rect x="477.4" y="99.7" class="st35" width="41.6" height="26.9"/>
	<text transform="matrix(1 0 0 1 530.666 109.1443)"><tspan x="0" y="0" class="st34 st33">IF</tspan><tspan x="10.7" y="0" class="st30 st33"> - intermediate flowering</tspan><tspan x="0" y="14.4" class="st30 st33">2018/01/08 - 2018/01/17</tspan></text>
</g>
<g>
	<rect x="477.4" y="146" class="st36" width="41.6" height="26.9"/>
	<text transform="matrix(1 0 0 1 530.6659 155.4841)"><tspan x="0" y="0" class="st34 st33">LF</tspan><tspan x="14.7" y="0" class="st30 st33"> - late flowering</tspan><tspan x="0" y="14.4" class="st30 st33">2018/01/31 - 2018/04/03</tspan></text>
</g>
<g>
	<rect x="477.4" y="191.7" class="st7" width="41.6" height="26.9"/>
	<text transform="matrix(1 0 0 1 530.6663 201.8208)"><tspan x="0" y="0" class="st34 st33">(not used)</tspan><tspan x="0" y="14.4" class="st30 st33">2018/04/11 - 2018/05/18</tspan></text>
</g>
<g>
	<rect x="477.4" y="238.1" class="st23" width="41.6" height="26.9"/>
	<text transform="matrix(1 0 0 1 530.6663 248.1627)"><tspan x="0" y="0" class="st34 st33">NF</tspan><tspan x="16" y="0" class="st30 st33"> - not flowering by:</tspan><tspan x="0" y="14.4" class="st30 st33">2018/05/18</tspan></text>
</g>
<g>
	<rect x="477.4" y="284.2" class="st37" width="41.6" height="26.9"/>
	<text transform="matrix(1 0 0 1 530.6663 294.8662)"><tspan x="0" y="0" class="st34 st33">NF</tspan><tspan x="16" y="0" class="st30 st33"> - late bloomers:</tspan><tspan x="0" y="14.4" class="st30 st33">- 2018/06/18  </tspan><tspan x="0" y="28.8" class="st30 st33">- 2018/07/01</tspan><tspan x="0" y="43.2" class="st30 st33">- 2018/10/07</tspan></text>
</g>
</svg>
